<?xml version="1.0" encoding="utf-8"?>
<!-- Generator: Adobe Illustrator 24.1.0, SVG Export Plug-In . SVG Version: 6.00 Build 0)  -->
<svg version="1.1" id="Layer_1" xmlns="http://www.w3.org/2000/svg" xmlns:xlink="http://www.w3.org/1999/xlink" x="0px" y="0px"
	 viewBox="0 0 1729 503" style="enable-background:new 0 0 1729 503;" xml:space="preserve">
<style type="text/css">
	.st0{fill:none;stroke:#0068FF;stroke-width:60;stroke-miterlimit:10;}
	.st1{fill:#0A1F33;}
</style>
<g>
	<path class="st0" d="M486.13,250.67c0,23.09-23.17,42.23-29.93,63.06c-7.01,21.59,0.24,50.65-12.84,68.62
		c-13.21,18.15-43.17,20.17-61.32,33.38c-17.97,13.08-29.08,41.02-50.67,48.03c-20.83,6.76-46.15-9.09-69.24-9.09
		c-23.09,0-48.41,15.86-69.24,9.09c-21.59-7.01-32.7-34.96-50.67-48.03c-18.15-13.21-48.11-15.23-61.32-33.38
		c-13.08-17.97-5.83-47.03-12.84-68.62c-6.76-20.83-29.93-39.97-29.93-63.06c0-23.09,23.17-42.23,29.93-63.06
		c7.01-21.59-0.24-50.65,12.84-68.62c13.21-18.15,43.17-20.17,61.32-33.38c17.97-13.08,29.08-41.02,50.67-48.03
		c20.83-6.76,46.15,9.09,69.24,9.09c23.09,0,48.41-15.86,69.24-9.09c21.59,7.01,32.7,34.96,50.67,48.03
		c18.15,13.21,48.11,15.23,61.32,33.38c13.08,17.97,5.83,47.03,12.84,68.62C462.96,208.44,486.13,227.58,486.13,250.67z"/>
	<g>
		<path class="st1" d="M722.39,317.82c0,17.5,5.37,22.57,20.11,22.57v6.6c-7.98-0.31-25.64-1.23-42.06-1.23
			c-16.27,0-35.15,0.92-43.44,1.23v-6.6c14.58,0,20.11-5.07,20.11-22.57v-99.16c0-18.88-4.91-27.78-20.11-27.78v-6.6
			c6.6,0.61,13.2,1.07,19.49,1.07c17.5,0,32.7-1.38,45.9-4.45V317.82z M726.23,127.48c0,15.2-11.21,24.41-28.55,24.41
			c-17.65,0-28.71-9.21-28.71-24.41c0-15.04,11.05-24.25,28.71-24.25C715.02,103.22,726.23,112.43,726.23,127.48z"/>
		<path class="st1" d="M1021.4,317.82c0,17.5,5.53,22.57,20.11,22.57v6.6c-7.98-0.31-26.1-1.23-41.45-1.23
			c-15.35,0-31.62,0.92-38.99,1.23v-6.6c11.05,0,15.04-5.07,15.04-22.57v-97.78c0-15.66-3.07-26.25-18.73-26.25
			c-15.35,0-28.24,14.43-30.7,32.85l0.15,6.45v84.73c0,17.5,4.61,22.57,18.11,22.57v6.6c-7.52-0.31-25.02-1.23-39.6-1.23
			c-15.35,0-31.62,0.92-38.99,1.23v-6.6c11.05,0,15.2-5.07,15.2-22.57v-97.78c0-15.66-2.61-26.25-16.89-26.25
			c-16.89,0-30.55,15.66-30.55,36.38v87.65c0,17.5,3.84,22.57,15.04,22.57v6.6c-7.06-0.31-22.56-1.23-37.15-1.23
			c-16.12,0-35,0.92-43.29,1.23v-6.6c14.58,0,20.11-5.07,20.11-22.57v-99.16c0-18.88-4.91-27.78-20.11-27.78v-6.6
			c6.6,0.61,13.2,1.07,19.49,1.07c17.5,0,32.7-1.38,45.9-4.45v28.4c9.82-20.88,27.94-29.32,48.66-29.32
			c17.35,0,27.94,4.91,34.38,12.28c3.99,4.6,6.6,10.59,7.98,18.73c11.51-23.95,31.01-31.01,52.19-31.01
			c17.5,0,27.94,4.91,34.38,12.28c7.06,7.98,9.67,20.11,9.67,40.83V317.82z"/>
		<path class="st1" d="M1234.59,258.42c0,61.09-28.71,93.02-72.76,93.02c-12.89,0-24.41-3.53-32.24-10.13v31.47
			c0,19.49,10.59,24.56,28.25,24.56v6.6c-10.59-0.31-31.47-1.38-52.81-1.38c-15.35,0-31.78,1.07-39.6,1.38v-6.6
			c13.82,0,18.88-4.76,18.88-21.49V218.81c0-18.88-4.91-27.63-20.11-27.63v-6.6c6.6,0.61,13.2,0.92,19.5,0.92
			c17.5,0,32.85-1.23,45.9-4.45v29.47c8.75-19.96,26.56-30.55,48.81-30.55C1210.33,179.98,1234.59,206.07,1234.59,258.42z
			 M1187.15,264.56c0-53.42-10.75-71.07-27.17-71.07c-13.82,0-26.56,9.98-30.39,27.78V334.4c4.6,5.37,11.51,8.44,19.96,8.44
			C1177.48,342.84,1187.15,312.91,1187.15,264.56z"/>
		<path class="st1" d="M1387.76,194.1c9.21,9.52,11.21,22.1,11.21,44.06v85.5c0,10.13,1.69,13.97,6.75,13.97
			c4.45,0,7.98-2.61,11.51-5.37l3.22,5.37c-9.52,7.67-19.96,11.51-35.92,11.51c-23.03,0-30.09-11.97-30.24-25.48
			c-10.75,17.65-28.71,25.48-46.36,25.48c-23.49,0-39.76-12.89-39.76-35.77c0-22.72,15.04-35.46,44.21-46.2
			c23.18-8.75,41.29-14.74,41.29-28.25v-24.56c0-16.42-7.06-28.09-25.64-28.09c-7.52,0-16.73,2.15-22.41,7.68
			c11.21,3.84,18.57,11.97,18.57,24.71c0,13.05-10.13,22.57-25.64,22.57c-13.66,0-22.26-10.44-22.26-24.25
			c0-11.51,7.37-20.26,17.65-26.25c11.21-6.29,26.56-10.75,47.74-10.75C1361.97,179.98,1377.63,183.66,1387.76,194.1z
			 M1353.68,251.82c-2.92,4.76-8.9,8.9-19.5,15.5c-11.05,8.14-21.34,18.42-21.34,37.3c0,17.35,8.44,24.41,19.65,24.41
			c7.67,0,14.58-3.38,21.18-12.74V251.82z"/>
		<path class="st1" d="M1563.04,189.65c10.59,6.45,17.35,16.89,17.35,29.32c0,14.89-10.44,25.33-24.87,25.33
			c-14.89,0-24.25-9.21-24.25-23.33c0-13.2,9.52-22.72,20.72-25.79c-3.22-4.3-10.59-7.52-18.88-7.52
			c-26.1,0-39.76,31.77-39.76,74.45c0,48.81,20.88,63.4,41.6,63.4c11.67,0,28.4-4.61,41.14-25.63l5.53,2
			c-7.21,23.49-26.56,49.58-62.48,49.58c-40.99,0-73.22-25.94-73.22-84.89c0-56.8,33.16-86.58,77.67-86.58
			C1539.86,179.98,1553.98,183.97,1563.04,189.65z"/>
		<path class="st1" d="M1711.46,184.58v6.29h-37.15v126.79c0,12.89,4.61,17.5,13.82,17.5c7.67,0,15.35-4.91,21.49-18.88l5.22,2.92
			c-6.91,18.73-19.8,32.24-42.98,32.24c-14.12,0-24.41-3.53-31.47-10.59c-9.06-9.21-11.36-21.95-11.36-43.9V190.87h-26.4v-6.29h26.4
			v-41.6c17.65-0.15,32.24-3.07,45.28-10.13v51.73H1711.46z"/>
	</g>
</g>
</svg>
