<svg id="Capa_1" enable-background="new 0 0 512 512" height="512" viewBox="0 0 512 512" width="512" xmlns="http://www.w3.org/2000/svg"><path d="m60.036 90.072h30.023v30h-30.023z"/><path d="m90.868 270.168h30.023v30h-30.023z"/><path d="m90.868 330.216h30.023v30h-30.023z"/><path d="m90.868 390.264h30.023v30h-30.023z"/><path d="m150.916 270.168h30.024v30h-30.024z"/><path d="m150.916 330.216h30.024v30h-30.024z"/><path d="m150.916 390.264h30.024v30h-30.024z"/><path d="m210.964 270.168h30.024v30h-30.024z"/><path d="m210.964 330.216h30.024v30h-30.024z"/><path d="m210.964 390.264h30.024v30h-30.024z"/><path d="m271.012 270.168h30.024v30h-30.024z"/><path d="m271.012 330.216h30.024v30h-30.024z"/><path d="m271.012 390.264h30.024v30h-30.024z"/><path d="m331.06 270.168h30.024v30h-30.024z"/><path d="m331.06 330.216h30.024v30h-30.024z"/><path d="m331.06 390.264h30.024v30h-30.024z"/><path d="m391.108 270.168h30.023v30h-30.023z"/><path d="m391.108 330.216h30.023v30h-30.023z"/><path d="m391.108 390.264h30.023v30h-30.023z"/><path d="m120.084 90.072h30.024v30h-30.024z"/><path d="m180.132 90.072h30.024v30h-30.024z"/><path d="m0 30.024v451.952h512v-451.952zm482 30v90.096h-452v-90.096zm-452 391.952v-271.856h452v271.856z"/><path d="m90.868 210.12h330.264v30h-330.264z"/></svg>