<?xml version="1.0" encoding="utf-8"?>
<!-- Generator: Adobe Illustrator 24.3.0, SVG Export Plug-In . SVG Version: 6.00 Build 0)  -->
<svg version="1.1" id="Layer_1" xmlns="http://www.w3.org/2000/svg" xmlns:xlink="http://www.w3.org/1999/xlink" x="0px" y="0px"
	 viewBox="0 0 500 500" style="enable-background:new 0 0 500 500;" xml:space="preserve">
<style type="text/css">
	.facebook-st0{fill:#1877F2;}
	.facebook-st1{fill:#FFFFFF;}
</style>
<g id="XMLID_17_">
	<path id="XMLID_22_" class="facebook-st0" d="M500,250C500,111.9,388.1,0,250,0S0,111.9,0,250c0,124.8,91.4,228.2,211,247V322.3h-63.4V250
		H211v-55.1c0-62.6,37.3-97.3,94.4-97.3c27.4,0,56,4.9,56,4.9v61.5h-31.5c-31.1,0-40.7,19.3-40.7,39V250h69.3l-11.1,72.3h-58.2V497
		C408.6,478.2,500,374.8,500,250z"/>
	<path id="XMLID_18_" class="facebook-st1" d="M347.3,322.3l11.1-72.3H289v-46.8c0-19.7,9.7-39,40.7-39h31.5v-61.5c0,0-28.6-4.9-56-4.9
		c-57.1,0-94.4,34.7-94.4,97.3V250h-63.4v72.3h63.4V497c12.7,2.1,25.8,3,39,3s26.3-1.1,39-3V322.3H347.3z"/>
</g>
</svg>
